{
	"accessors":[{
		"max":[10594],
		"bufferView":0,
		"type":"SCALAR",
		"min":[0],
		"componentType":5123,
		"count":62208,
		"byteOffset":0
	},
	{
		"max":[30.06406593322754,
		5.051741123199463,
		-7.178130149841309],
		"bufferView":1,
		"type":"VEC3",
		"min":[-30.45631980895996,
		-6.552331924438477,
		-139.67474365234376],
		"componentType":5126,
		"count":10595,
		"byteOffset":0
	},
	{
		"max":[0.9958983659744263,
		0.9999521374702454,
		0.9474542737007141],
		"bufferView":1,
		"type":"VEC3",
		"min":[-0.9956085085868836,
		-0.9999572038650513,
		-0.8968942165374756],
		"componentType":5126,
		"count":10595,
		"byteOffset":12
	},
	{
		"max":[0.9986978769302368,
		0.9973958730697632],
		"bufferView":1,
		"type":"VEC2",
		"min":[0.0013020832557231188,
		0.0026041665114462377],
		"componentType":5126,
		"count":10595,
		"byteOffset":24
	},
	{
		"max":[10594],
		"bufferView":2,
		"type":"SCALAR",
		"min":[0],
		"componentType":5123,
		"count":62208,
		"byteOffset":0
	},
	{
		"max":[30.06406593322754,
		5.051741123199463,
		-7.178130149841309],
		"bufferView":3,
		"type":"VEC3",
		"min":[-30.456317901611329,
		-6.552331924438477,
		-139.67474365234376],
		"componentType":5126,
		"count":10595,
		"byteOffset":0
	},
	{
		"max":[0.9958983063697815,
		0.9999521374702454,
		0.9474542737007141],
		"bufferView":3,
		"type":"VEC3",
		"min":[-0.995608389377594,
		-0.9999573230743408,
		-0.8968942165374756],
		"componentType":5126,
		"count":10595,
		"byteOffset":12
	},
	{
		"max":[0.9986978769302368,
		0.9973958730697632],
		"bufferView":3,
		"type":"VEC2",
		"min":[0.0013020832557231188,
		0.0026041665114462377],
		"componentType":5126,
		"count":10595,
		"byteOffset":24
	},
	{
		"max":[10594],
		"bufferView":4,
		"type":"SCALAR",
		"min":[0],
		"componentType":5123,
		"count":62208,
		"byteOffset":0
	},
	{
		"max":[30.064062118530275,
		5.051741123199463,
		-7.178130149841309],
		"bufferView":5,
		"type":"VEC3",
		"min":[-30.456317901611329,
		-6.552331924438477,
		-139.67474365234376],
		"componentType":5126,
		"count":10595,
		"byteOffset":0
	},
	{
		"max":[0.9958983659744263,
		0.9999521374702454,
		0.9474542737007141],
		"bufferView":5,
		"type":"VEC3",
		"min":[-0.995608389377594,
		-0.9999573230743408,
		-0.8968942165374756],
		"componentType":5126,
		"count":10595,
		"byteOffset":12
	},
	{
		"max":[0.9986978769302368,
		0.9973958730697632],
		"bufferView":5,
		"type":"VEC2",
		"min":[0.0013020832557231188,
		0.0026041665114462377],
		"componentType":5126,
		"count":10595,
		"byteOffset":24
	},
	{
		"max":[10594],
		"bufferView":6,
		"type":"SCALAR",
		"min":[0],
		"componentType":5123,
		"count":62208,
		"byteOffset":0
	},
	{
		"max":[30.06406593322754,
		5.051741123199463,
		-7.178130149841309],
		"bufferView":7,
		"type":"VEC3",
		"min":[-30.456317901611329,
		-6.552331924438477,
		-139.67474365234376],
		"componentType":5126,
		"count":10595,
		"byteOffset":0
	},
	{
		"max":[0.9958983063697815,
		0.9999521374702454,
		0.9474541544914246],
		"bufferView":7,
		"type":"VEC3",
		"min":[-0.995608389377594,
		-0.9999573230743408,
		-0.8968941569328308],
		"componentType":5126,
		"count":10595,
		"byteOffset":12
	},
	{
		"max":[0.9986978769302368,
		0.9973958730697632],
		"bufferView":7,
		"type":"VEC2",
		"min":[0.0013020832557231188,
		0.0026041665114462377],
		"componentType":5126,
		"count":10595,
		"byteOffset":24
	},
	{
		"max":[1949],
		"bufferView":8,
		"type":"SCALAR",
		"min":[0],
		"componentType":5123,
		"count":10368,
		"byteOffset":0
	},
	{
		"max":[40.650997161865237,
		80.5360107421875,
		64.61685943603516],
		"bufferView":9,
		"type":"VEC3",
		"min":[-73.9178695678711,
		-1.1582123041152955,
		-61.08329772949219],
		"componentType":5126,
		"count":1950,
		"byteOffset":0
	},
	{
		"max":[0.7837563753128052,
		0.9855559468269348,
		0.5977457165718079],
		"bufferView":9,
		"type":"VEC3",
		"min":[-0.8768556118011475,
		0.35050421953201296,
		-0.8415339589118958],
		"componentType":5126,
		"count":1950,
		"byteOffset":12
	},
	{
		"max":[1.0,
		1.0],
		"bufferView":9,
		"type":"VEC2",
		"min":[0.0,
		0.0],
		"componentType":5126,
		"count":1950,
		"byteOffset":24
	},
	{
		"max":[1949],
		"bufferView":10,
		"type":"SCALAR",
		"min":[0],
		"componentType":5123,
		"count":10368,
		"byteOffset":0
	},
	{
		"max":[33.369110107421878,
		84.17127227783203,
		57.97923278808594],
		"bufferView":11,
		"type":"VEC3",
		"min":[-79.37109375,
		-1.1582123041152955,
		-66.64620971679688],
		"componentType":5126,
		"count":1950,
		"byteOffset":0
	},
	{
		"max":[0.7224651575088501,
		0.985826849937439,
		0.47491297125816347],
		"bufferView":11,
		"type":"VEC3",
		"min":[-0.9352166652679443,
		-0.04443534091114998,
		-0.9466052055358887],
		"componentType":5126,
		"count":1950,
		"byteOffset":12
	},
	{
		"max":[1.0,
		1.0],
		"bufferView":11,
		"type":"VEC2",
		"min":[0.0,
		0.0],
		"componentType":5126,
		"count":1950,
		"byteOffset":24
	},
	{
		"max":[1949],
		"bufferView":12,
		"type":"SCALAR",
		"min":[0],
		"componentType":5123,
		"count":10368,
		"byteOffset":0
	},
	{
		"max":[44.484596252441409,
		79.88761901855469,
		60.563053131103519],
		"bufferView":13,
		"type":"VEC3",
		"min":[-79.71863555908203,
		-1.1582123041152955,
		-71.13275909423828],
		"componentType":5126,
		"count":1950,
		"byteOffset":0
	},
	{
		"max":[0.6810063123703003,
		0.9859498143196106,
		0.45689713954925539],
		"bufferView":13,
		"type":"VEC3",
		"min":[-0.8826348185539246,
		0.3423410952091217,
		-0.909234881401062],
		"componentType":5126,
		"count":1950,
		"byteOffset":12
	},
	{
		"max":[1.0,
		1.0],
		"bufferView":13,
		"type":"VEC2",
		"min":[0.0,
		0.0],
		"componentType":5126,
		"count":1950,
		"byteOffset":24
	}],
	"asset":{
		"version":"2.0",
		"generator":"Created using the official Cinema 4D glTF Exporter 1.000x284978"
	},
	"scenes":[{
		"nodes":[0]
	}],
	"nodes":[{
		"name":"Null",
		"translation":[0.0,
		0.0,
		0.0],
		"rotation":[0.0,
		0.0,
		0.0,
		-1.0],
		"scale":[1.0,
		1.0,
		1.0],
		"children":[1]
	},
	{
		"name":"Subdivision Surface",
		"translation":[0.0,
		0.0,
		0.0],
		"rotation":[0.0,
		0.0,
		0.0,
		-1.0],
		"scale":[1.0,
		1.0,
		1.0],
		"children":[2,
		16]
	},
	{
		"name":"Cloth Surface",
		"translation":[0.0,
		0.0,
		0.0],
		"rotation":[0.0,
		0.0,
		0.0,
		-1.0],
		"scale":[1.0,
		1.0,
		1.0],
		"children":[3]
	},
	{
		"name":"shell",
		"children":[4,
		7,
		10,
		13]
	},
	{
		"name":"petalnull 0",
		"children":[5]
	},
	{
		"name":"petal",
		"children":[6]
	},
	{
		"name":"petal",
		"mesh":0
	},
	{
		"name":"petalnull 1",
		"translation":[0.0,
		0.0,
		0.0],
		"rotation":[0.0,
		-0.7071067690849304,
		0.0,
		0.7071067690849304],
		"scale":[1.0,
		1.0,
		1.0],
		"children":[8]
	},
	{
		"name":"petal",
		"children":[9]
	},
	{
		"name":"petal",
		"mesh":1
	},
	{
		"name":"petalnull 2",
		"translation":[0.0,
		0.0,
		0.0],
		"rotation":[0.0,
		-1.0,
		0.0,
		-6.123234262925839e-17],
		"scale":[1.0,
		1.0,
		1.0],
		"children":[11]
	},
	{
		"name":"petal",
		"children":[12]
	},
	{
		"name":"petal",
		"mesh":2
	},
	{
		"name":"petalnull 3",
		"translation":[0.0,
		0.0,
		0.0],
		"rotation":[0.0,
		-0.7071067690849304,
		0.0,
		-0.7071067690849304],
		"scale":[1.0,
		1.0,
		1.0],
		"children":[14]
	},
	{
		"name":"petal",
		"children":[15]
	},
	{
		"name":"petal",
		"mesh":3
	},
	{
		"name":"petal",
		"translation":[0.0,
		0.0,
		0.0],
		"rotation":[0.0,
		0.0,
		0.0,
		-1.0],
		"scale":[1.0,
		1.0,
		1.0],
		"children":[17,
		20,
		23]
	},
	{
		"name":"petalnull 0",
		"children":[18]
	},
	{
		"name":"petal",
		"children":[19]
	},
	{
		"name":"petal",
		"mesh":4
	},
	{
		"name":"petalnull 1",
		"translation":[0.0,
		0.0,
		0.0],
		"rotation":[0.0,
		-0.8660253882408142,
		0.0,
		0.5],
		"scale":[1.0,
		1.0,
		1.0],
		"children":[21]
	},
	{
		"name":"petal",
		"children":[22]
	},
	{
		"name":"petal",
		"mesh":5
	},
	{
		"name":"petalnull 2",
		"translation":[0.0,
		0.0,
		0.0],
		"rotation":[0.0,
		-0.8660253882408142,
		0.0,
		-0.5],
		"scale":[1.0,
		1.0,
		1.0],
		"children":[24]
	},
	{
		"name":"petal",
		"children":[25]
	},
	{
		"name":"petal",
		"mesh":6
	}],
	"meshes":[{
		"name":"petal",
		"primitives":[{
			"attributes":{
				"POSITION":1,
				"NORMAL":2,
				"TEXCOORD_0":3
			},
			"indices":0,
			"material":0
		}]
	},
	{
		"name":"petal",
		"primitives":[{
			"attributes":{
				"POSITION":5,
				"NORMAL":6,
				"TEXCOORD_0":7
			},
			"indices":4,
			"material":0
		}]
	},
	{
		"name":"petal",
		"primitives":[{
			"attributes":{
				"POSITION":9,
				"NORMAL":10,
				"TEXCOORD_0":11
			},
			"indices":8,
			"material":0
		}]
	},
	{
		"name":"petal",
		"primitives":[{
			"attributes":{
				"POSITION":13,
				"NORMAL":14,
				"TEXCOORD_0":15
			},
			"indices":12,
			"material":0
		}]
	},
	{
		"name":"petal",
		"primitives":[{
			"attributes":{
				"POSITION":17,
				"NORMAL":18,
				"TEXCOORD_0":19
			},
			"indices":16,
			"material":0
		}]
	},
	{
		"name":"petal",
		"primitives":[{
			"attributes":{
				"POSITION":21,
				"NORMAL":22,
				"TEXCOORD_0":23
			},
			"indices":20,
			"material":0
		}]
	},
	{
		"name":"petal",
		"primitives":[{
			"attributes":{
				"POSITION":25,
				"NORMAL":26,
				"TEXCOORD_0":27
			},
			"indices":24,
			"material":0
		}]
	}],
	"bufferViews":[{
		"buffer":0,
		"byteOffset":0,
		"byteLength":124416,
		"target":34963
	},
	{
		"buffer":0,
		"byteOffset":124416,
		"byteLength":339040,
		"target":34962,
		"byteStride":32
	},
	{
		"buffer":1,
		"byteOffset":0,
		"byteLength":124416,
		"target":34963
	},
	{
		"buffer":1,
		"byteOffset":124416,
		"byteLength":339040,
		"target":34962,
		"byteStride":32
	},
	{
		"buffer":2,
		"byteOffset":0,
		"byteLength":124416,
		"target":34963
	},
	{
		"buffer":2,
		"byteOffset":124416,
		"byteLength":339040,
		"target":34962,
		"byteStride":32
	},
	{
		"buffer":3,
		"byteOffset":0,
		"byteLength":124416,
		"target":34963
	},
	{
		"buffer":3,
		"byteOffset":124416,
		"byteLength":339040,
		"target":34962,
		"byteStride":32
	},
	{
		"buffer":4,
		"byteOffset":0,
		"byteLength":20736,
		"target":34963
	},
	{
		"buffer":4,
		"byteOffset":20736,
		"byteLength":62400,
		"target":34962,
		"byteStride":32
	},
	{
		"buffer":5,
		"byteOffset":0,
		"byteLength":20736,
		"target":34963
	},
	{
		"buffer":5,
		"byteOffset":20736,
		"byteLength":62400,
		"target":34962,
		"byteStride":32
	},
	{
		"buffer":6,
		"byteOffset":0,
		"byteLength":20736,
		"target":34963
	},
	{
		"buffer":6,
		"byteOffset":20736,
		"byteLength":62400,
		"target":34962,
		"byteStride":32
	}],
	"buffers":[{
		"uri":"data:application/octet-stream;base64,",
		"byteLength":463456
	},
	{
		"uri":"data:application/octet-stream;base64,",
		"byteLength":463456
	},
	{
		"uri":"data:application/octet-stream;base64,",
		"byteLength":463456
	},
	{
		"uri":"data:application/octet-stream;base64,",
		"byteLength":463456
	},
	{
		"uri":"data:application/octet-stream;base64,",
		"byteLength":83136
	},
	{
		"uri":"data:application/octet-stream;base64,",
		"byteLength":83136
	},
	{
		"uri":"data:application/octet-stream;base64,",
		"byteLength":83136
	}],
	"materials":[{
		"alphaMode":"OPAQUE",
		"pbrMetallicRoughness":{
			"baseColorFactor":[1.0,
			1.0,
			1.0,
			1.0],
			"metallicFactor":1.0,
			"roughnessFactor":1.0
		},
		"emissiveFactor":[0.0,
		0.0,
		0.0],
		"doubleSided":true,
		"name":"PBR"
	}]
}