{
	"asset":{
		"version":"2.0",
		"generator":"Created using the official Cinema 4D glTF Exporter 1.000x284978"
	},
	"scenes":[{
		"nodes":[0]
	}],
	"nodes":[{
		"name":"Subdivision Surface",
		"children":[1,
		15]
	},
	{
		"name":"Cloth Surface",
		"children":[2]
	},
	{
		"name":"shell",
		"children":[3,
		6,
		9,
		12]
	},
	{
		"name":"petalnull 0",
		"children":[4]
	},
	{
		"name":"petal",
		"children":[5]
	},
	{
		"name":"petal",
		"mesh":0
	},
	{
		"translation":[0.0,
		0.0,
		0.0],
		"name":"petalnull 1",
		"rotation":[0.0,
		-0.7071067690849304,
		0.0,
		0.7071067690849304],
		"scale":[1.0,
		1.0,
		1.0],
		"children":[7]
	},
	{
		"name":"petal",
		"children":[8]
	},
	{
		"name":"petal",
		"mesh":1
	},
	{
		"translation":[0.0,
		0.0,
		0.0],
		"name":"petalnull 2",
		"rotation":[0.0,
		-1.0,
		0.0,
		-6.123234262925839e-17],
		"scale":[1.0,
		1.0,
		1.0],
		"children":[10]
	},
	{
		"name":"petal",
		"children":[11]
	},
	{
		"name":"petal",
		"mesh":2
	},
	{
		"translation":[0.0,
		0.0,
		0.0],
		"name":"petalnull 3",
		"rotation":[0.0,
		-0.7071067690849304,
		0.0,
		-0.7071067690849304],
		"scale":[1.0,
		1.0,
		1.0],
		"children":[13]
	},
	{
		"name":"petal",
		"children":[14]
	},
	{
		"name":"petal",
		"mesh":3
	},
	{
		"name":"petal",
		"children":[16,
		19,
		22]
	},
	{
		"name":"petalnull 0",
		"children":[17]
	},
	{
		"name":"petal",
		"children":[18]
	},
	{
		"name":"petal",
		"mesh":4
	},
	{
		"translation":[0.0,
		0.0,
		0.0],
		"name":"petalnull 1",
		"rotation":[0.0,
		-0.8660253882408142,
		0.0,
		0.5],
		"scale":[1.0,
		1.0,
		1.0],
		"children":[20]
	},
	{
		"name":"petal",
		"children":[21]
	},
	{
		"name":"petal",
		"mesh":5
	},
	{
		"translation":[0.0,
		0.0,
		0.0],
		"name":"petalnull 2",
		"rotation":[0.0,
		-0.8660253882408142,
		0.0,
		-0.5],
		"scale":[1.0,
		1.0,
		1.0],
		"children":[23]
	},
	{
		"name":"petal",
		"children":[24]
	},
	{
		"name":"petal",
		"mesh":6
	}],
	"textures":[{
		"sampler":0,
		"source":0
	},
	{
		"sampler":1,
		"source":1
	}],
	"meshes":[{
		"name":"petal",
		"primitives":[{
			"indices":0,
			"attributes":{
				"POSITION":1,
				"NORMAL":2,
				"TEXCOORD_0":3
			},
			"material":0
		}]
	},
	{
		"name":"petal",
		"primitives":[{
			"indices":4,
			"attributes":{
				"POSITION":5,
				"NORMAL":6,
				"TEXCOORD_0":7
			},
			"material":0
		}]
	},
	{
		"name":"petal",
		"primitives":[{
			"indices":8,
			"attributes":{
				"POSITION":9,
				"NORMAL":10,
				"TEXCOORD_0":11
			},
			"material":0
		}]
	},
	{
		"name":"petal",
		"primitives":[{
			"indices":12,
			"attributes":{
				"POSITION":13,
				"NORMAL":14,
				"TEXCOORD_0":15
			},
			"material":0
		}]
	},
	{
		"name":"petal",
		"primitives":[{
			"indices":16,
			"attributes":{
				"POSITION":17,
				"NORMAL":18,
				"TEXCOORD_0":19
			},
			"material":0
		}]
	},
	{
		"name":"petal",
		"primitives":[{
			"indices":20,
			"attributes":{
				"POSITION":21,
				"NORMAL":22,
				"TEXCOORD_0":23
			},
			"material":0
		}]
	},
	{
		"name":"petal",
		"primitives":[{
			"indices":24,
			"attributes":{
				"POSITION":25,
				"NORMAL":26,
				"TEXCOORD_0":27
			},
			"material":0
		}]
	}],
	"accessors":[{
		"bufferView":0,
		"min":[0],
		"type":"SCALAR",
		"componentType":5123,
		"count":62208,
		"byteOffset":0,
		"max":[10589]
	},
	{
		"bufferView":1,
		"min":[-30.456520080566408,
		-39.14189910888672,
		-132.9979705810547],
		"type":"VEC3",
		"componentType":5126,
		"count":10590,
		"byteOffset":0,
		"max":[30.064254760742189,
		3.448451519012451,
		-7.1391401290893559]
	},
	{
		"bufferView":1,
		"min":[-0.9956416487693787,
		-0.9996640682220459,
		-0.9145315289497376],
		"type":"VEC3",
		"componentType":5126,
		"count":10590,
		"byteOffset":12,
		"max":[0.9960823655128479,
		0.9997036457061768,
		0.9549059867858887]
	},
	{
		"bufferView":1,
		"min":[0.0013020832557231188,
		0.0026041665114462377],
		"type":"VEC2",
		"componentType":5126,
		"count":10590,
		"byteOffset":24,
		"max":[0.9986978769302368,
		0.9973958730697632]
	},
	{
		"bufferView":2,
		"min":[0],
		"type":"SCALAR",
		"componentType":5123,
		"count":62208,
		"byteOffset":0,
		"max":[10589]
	},
	{
		"bufferView":3,
		"min":[-30.456451416015626,
		-39.1414794921875,
		-133.01535034179688],
		"type":"VEC3",
		"componentType":5126,
		"count":10590,
		"byteOffset":0,
		"max":[30.064186096191408,
		3.4484505653381349,
		-7.139139175415039]
	},
	{
		"bufferView":3,
		"min":[-0.9956418871879578,
		-0.9996680021286011,
		-0.9139404296875],
		"type":"VEC3",
		"componentType":5126,
		"count":10590,
		"byteOffset":12,
		"max":[0.9960823655128479,
		0.999703586101532,
		0.9549055695533752]
	},
	{
		"bufferView":3,
		"min":[0.0013020832557231188,
		0.0026041665114462377],
		"type":"VEC2",
		"componentType":5126,
		"count":10590,
		"byteOffset":24,
		"max":[0.9986978769302368,
		0.9973958730697632]
	},
	{
		"bufferView":4,
		"min":[0],
		"type":"SCALAR",
		"componentType":5123,
		"count":62208,
		"byteOffset":0,
		"max":[10589]
	},
	{
		"bufferView":5,
		"min":[-30.456382751464845,
		-39.14189910888672,
		-132.9979705810547],
		"type":"VEC3",
		"componentType":5126,
		"count":10590,
		"byteOffset":0,
		"max":[30.064117431640626,
		3.4484498500823976,
		-7.1391401290893559]
	},
	{
		"bufferView":5,
		"min":[-0.9956415295600891,
		-0.9996640682220459,
		-0.9145315289497376],
		"type":"VEC3",
		"componentType":5126,
		"count":10590,
		"byteOffset":12,
		"max":[0.9960821866989136,
		0.999703586101532,
		0.9549050331115723]
	},
	{
		"bufferView":5,
		"min":[0.0013020832557231188,
		0.0026041665114462377],
		"type":"VEC2",
		"componentType":5126,
		"count":10590,
		"byteOffset":24,
		"max":[0.9986978769302368,
		0.9973958730697632]
	},
	{
		"bufferView":6,
		"min":[0],
		"type":"SCALAR",
		"componentType":5123,
		"count":62208,
		"byteOffset":0,
		"max":[10589]
	},
	{
		"bufferView":7,
		"min":[-30.456451416015626,
		-39.1414794921875,
		-133.01535034179688],
		"type":"VEC3",
		"componentType":5126,
		"count":10590,
		"byteOffset":0,
		"max":[30.064186096191408,
		3.448450803756714,
		-7.1391401290893559]
	},
	{
		"bufferView":7,
		"min":[-0.995641827583313,
		-0.9996680021286011,
		-0.9139404296875],
		"type":"VEC3",
		"componentType":5126,
		"count":10590,
		"byteOffset":12,
		"max":[0.9960823059082031,
		0.9997036457061768,
		0.9549045562744141]
	},
	{
		"bufferView":7,
		"min":[0.0013020832557231188,
		0.0026041665114462377],
		"type":"VEC2",
		"componentType":5126,
		"count":10590,
		"byteOffset":24,
		"max":[0.9986978769302368,
		0.9973958730697632]
	},
	{
		"bufferView":8,
		"min":[0],
		"type":"SCALAR",
		"componentType":5123,
		"count":10368,
		"byteOffset":0,
		"max":[1949]
	},
	{
		"bufferView":9,
		"min":[-83.1952133178711,
		-1.1563036441802979,
		-71.08392333984375],
		"type":"VEC3",
		"componentType":5126,
		"count":1950,
		"byteOffset":0,
		"max":[42.3690185546875,
		79.74445343017578,
		65.13121032714844]
	},
	{
		"bufferView":9,
		"min":[-0.8622275590896606,
		0.412039190530777,
		-0.8269935250282288],
		"type":"VEC3",
		"componentType":5126,
		"count":1950,
		"byteOffset":12,
		"max":[0.6065280437469482,
		0.9843029379844666,
		0.4254484176635742]
	},
	{
		"bufferView":9,
		"min":[0.0,
		0.0],
		"type":"VEC2",
		"componentType":5126,
		"count":1950,
		"byteOffset":24,
		"max":[1.0,
		1.0]
	},
	{
		"bufferView":10,
		"min":[0],
		"type":"SCALAR",
		"componentType":5123,
		"count":10368,
		"byteOffset":0,
		"max":[1949]
	},
	{
		"bufferView":11,
		"min":[-83.1952133178711,
		-1.1563036441802979,
		-71.08392333984375],
		"type":"VEC3",
		"componentType":5126,
		"count":1950,
		"byteOffset":0,
		"max":[42.3690299987793,
		79.74445343017578,
		65.13121032714844]
	},
	{
		"bufferView":11,
		"min":[-0.862227737903595,
		0.4120393693447113,
		-0.8269936442375183],
		"type":"VEC3",
		"componentType":5126,
		"count":1950,
		"byteOffset":12,
		"max":[0.6065275073051453,
		0.9843029379844666,
		0.4254485070705414]
	},
	{
		"bufferView":11,
		"min":[0.0,
		0.0],
		"type":"VEC2",
		"componentType":5126,
		"count":1950,
		"byteOffset":24,
		"max":[1.0,
		1.0]
	},
	{
		"bufferView":12,
		"min":[0],
		"type":"SCALAR",
		"componentType":5123,
		"count":10368,
		"byteOffset":0,
		"max":[1949]
	},
	{
		"bufferView":13,
		"min":[-83.1952133178711,
		-1.1563036441802979,
		-71.08392333984375],
		"type":"VEC3",
		"componentType":5126,
		"count":1950,
		"byteOffset":0,
		"max":[42.3691291809082,
		79.74612426757813,
		65.13121032714844]
	},
	{
		"bufferView":13,
		"min":[-0.8622276186943054,
		0.412039577960968,
		-0.8269936442375183],
		"type":"VEC3",
		"componentType":5126,
		"count":1950,
		"byteOffset":12,
		"max":[0.6065273880958557,
		0.9843029379844666,
		0.4254484176635742]
	},
	{
		"bufferView":13,
		"min":[0.0,
		0.0],
		"type":"VEC2",
		"componentType":5126,
		"count":1950,
		"byteOffset":24,
		"max":[1.0,
		1.0]
	}],
	"bufferViews":[{
		"buffer":0,
		"byteOffset":0,
		"byteLength":124416,
		"target":34963
	},
	{
		"buffer":0,
		"byteOffset":124416,
		"byteLength":338880,
		"target":34962,
		"byteStride":32
	},
	{
		"buffer":1,
		"byteOffset":0,
		"byteLength":124416,
		"target":34963
	},
	{
		"buffer":1,
		"byteOffset":124416,
		"byteLength":338880,
		"target":34962,
		"byteStride":32
	},
	{
		"buffer":2,
		"byteOffset":0,
		"byteLength":124416,
		"target":34963
	},
	{
		"buffer":2,
		"byteOffset":124416,
		"byteLength":338880,
		"target":34962,
		"byteStride":32
	},
	{
		"buffer":3,
		"byteOffset":0,
		"byteLength":124416,
		"target":34963
	},
	{
		"buffer":3,
		"byteOffset":124416,
		"byteLength":338880,
		"target":34962,
		"byteStride":32
	},
	{
		"buffer":4,
		"byteOffset":0,
		"byteLength":20736,
		"target":34963
	},
	{
		"buffer":4,
		"byteOffset":20736,
		"byteLength":62400,
		"target":34962,
		"byteStride":32
	},
	{
		"buffer":5,
		"byteOffset":0,
		"byteLength":20736,
		"target":34963
	},
	{
		"buffer":5,
		"byteOffset":20736,
		"byteLength":62400,
		"target":34962,
		"byteStride":32
	},
	{
		"buffer":6,
		"byteOffset":0,
		"byteLength":20736,
		"target":34963
	},
	{
		"buffer":6,
		"byteOffset":20736,
		"byteLength":62400,
		"target":34962,
		"byteStride":32
	}],
	"buffers":[{
		"uri":"data:application/octet-stream;base64,",
		"byteLength":463296
	},
	{
		"uri":"data:application/octet-stream;base64,",
		"byteLength":463296
	},
	{
		"uri":"data:application/octet-stream;base64,",
		"byteLength":463296
	},
	{
		"uri":"data:application/octet-stream;base64,",
		"byteLength":463296
	},
	{
		"uri":"data:application/octet-stream;base64,",
		"byteLength":83136
	},
	{
		"uri":"data:application/octet-stream;base64,",
		"byteLength":83136
	},
	{
		"uri":"data:application/octet-stream;base64,",
		"byteLength":83136
	}],
	"images":[{
		"uri":"data:image/jpeg;base64,"
	},
	{
		"uri":"data:image/jpeg;base64,"
	}],
	"samplers":[{
		"magFilter":9729,
		"minFilter":9729,
		"wrapS":10497,
		"wrapT":10497
	},
	{
		"magFilter":9729,
		"minFilter":9729,
		"wrapS":10497,
		"wrapT":10497
	}],
	"materials":[{
		"pbrMetallicRoughness":{
			"baseColorFactor":[0.8,
			0.8,
			0.8,
			1.0],
			"metallicRoughnessTexture":{
				"index":0
			},
			"metallicFactor":1.0,
			"roughnessFactor":1.0
		},
		"normalTexture":{
			"index":1,
			"scale":1.0
		},
		"emissiveFactor":[0.0,
		0.0,
		0.0],
		"alphaMode":"OPAQUE",
		"doubleSided":false,
		"name":"PBR"
	}]
}