{
	"accessors":[{
		"max":[10796],
		"bufferView":0,
		"type":"SCALAR",
		"min":[0],
		"componentType":5123,
		"count":62208,
		"byteOffset":0
	},
	{
		"max":[30.062801361083986,
		100.45954895019531,
		-4.844348907470703],
		"bufferView":1,
		"type":"VEC3",
		"min":[-30.455078125,
		-1.5114575624465943,
		-42.673797607421878],
		"componentType":5126,
		"count":10797,
		"byteOffset":0
	},
	{
		"max":[0.9944998025894165,
		0.9855684041976929,
		0.9998504519462586],
		"bufferView":1,
		"type":"VEC3",
		"min":[-0.9997080564498901,
		-0.9973581433296204,
		-0.9998571276664734],
		"componentType":5126,
		"count":10797,
		"byteOffset":12
	},
	{
		"max":[0.9986978769302368,
		0.9973958730697632],
		"bufferView":1,
		"type":"VEC2",
		"min":[0.0013020832557231188,
		0.0026041665114462377],
		"componentType":5126,
		"count":10797,
		"byteOffset":24
	},
	{
		"max":[10796],
		"bufferView":2,
		"type":"SCALAR",
		"min":[0],
		"componentType":5123,
		"count":62208,
		"byteOffset":0
	},
	{
		"max":[30.062801361083986,
		100.45954895019531,
		-4.844348907470703],
		"bufferView":3,
		"type":"VEC3",
		"min":[-30.455078125,
		-1.5114575624465943,
		-42.673797607421878],
		"componentType":5126,
		"count":10797,
		"byteOffset":0
	},
	{
		"max":[0.9944998025894165,
		0.9855684041976929,
		0.9998504519462586],
		"bufferView":3,
		"type":"VEC3",
		"min":[-0.9997080564498901,
		-0.9973581433296204,
		-0.9998571276664734],
		"componentType":5126,
		"count":10797,
		"byteOffset":12
	},
	{
		"max":[0.9986978769302368,
		0.9973958730697632],
		"bufferView":3,
		"type":"VEC2",
		"min":[0.0013020832557231188,
		0.0026041665114462377],
		"componentType":5126,
		"count":10797,
		"byteOffset":24
	},
	{
		"max":[10796],
		"bufferView":4,
		"type":"SCALAR",
		"min":[0],
		"componentType":5123,
		"count":62208,
		"byteOffset":0
	},
	{
		"max":[30.062801361083986,
		100.45954895019531,
		-4.844348907470703],
		"bufferView":5,
		"type":"VEC3",
		"min":[-30.455078125,
		-1.5114575624465943,
		-42.673797607421878],
		"componentType":5126,
		"count":10797,
		"byteOffset":0
	},
	{
		"max":[0.9944998025894165,
		0.9855684041976929,
		0.9998504519462586],
		"bufferView":5,
		"type":"VEC3",
		"min":[-0.9997080564498901,
		-0.9973581433296204,
		-0.9998571276664734],
		"componentType":5126,
		"count":10797,
		"byteOffset":12
	},
	{
		"max":[0.9986978769302368,
		0.9973958730697632],
		"bufferView":5,
		"type":"VEC2",
		"min":[0.0013020832557231188,
		0.0026041665114462377],
		"componentType":5126,
		"count":10797,
		"byteOffset":24
	},
	{
		"max":[10796],
		"bufferView":6,
		"type":"SCALAR",
		"min":[0],
		"componentType":5123,
		"count":62208,
		"byteOffset":0
	},
	{
		"max":[30.062801361083986,
		100.45954895019531,
		-4.844348907470703],
		"bufferView":7,
		"type":"VEC3",
		"min":[-30.455078125,
		-1.5114575624465943,
		-42.673797607421878],
		"componentType":5126,
		"count":10797,
		"byteOffset":0
	},
	{
		"max":[0.9944998025894165,
		0.9855684041976929,
		0.9998504519462586],
		"bufferView":7,
		"type":"VEC3",
		"min":[-0.9997080564498901,
		-0.9973581433296204,
		-0.9998571276664734],
		"componentType":5126,
		"count":10797,
		"byteOffset":12
	},
	{
		"max":[0.9986978769302368,
		0.9973958730697632],
		"bufferView":7,
		"type":"VEC2",
		"min":[0.0013020832557231188,
		0.0026041665114462377],
		"componentType":5126,
		"count":10797,
		"byteOffset":24
	},
	{
		"max":[1949],
		"bufferView":8,
		"type":"SCALAR",
		"min":[0],
		"componentType":5123,
		"count":10368,
		"byteOffset":0
	},
	{
		"max":[30.761524200439454,
		74.50450134277344,
		35.389808654785159],
		"bufferView":9,
		"type":"VEC3",
		"min":[-40.41131591796875,
		-1.167084813117981,
		-41.84130859375],
		"componentType":5126,
		"count":1950,
		"byteOffset":0
	},
	{
		"max":[0.9995985627174377,
		0.9669479727745056,
		0.860165536403656],
		"bufferView":9,
		"type":"VEC3",
		"min":[-0.931373655796051,
		-0.793740451335907,
		-0.9806287288665772],
		"componentType":5126,
		"count":1950,
		"byteOffset":12
	},
	{
		"max":[1.0,
		1.0],
		"bufferView":9,
		"type":"VEC2",
		"min":[0.0,
		0.0],
		"componentType":5126,
		"count":1950,
		"byteOffset":24
	},
	{
		"max":[1949],
		"bufferView":10,
		"type":"SCALAR",
		"min":[0],
		"componentType":5123,
		"count":10368,
		"byteOffset":0
	},
	{
		"max":[30.761524200439454,
		74.50450134277344,
		35.389808654785159],
		"bufferView":11,
		"type":"VEC3",
		"min":[-40.41131591796875,
		-1.167084813117981,
		-41.84130859375],
		"componentType":5126,
		"count":1950,
		"byteOffset":0
	},
	{
		"max":[0.9995985627174377,
		0.9669479727745056,
		0.860165536403656],
		"bufferView":11,
		"type":"VEC3",
		"min":[-0.931373655796051,
		-0.793740451335907,
		-0.9806287288665772],
		"componentType":5126,
		"count":1950,
		"byteOffset":12
	},
	{
		"max":[1.0,
		1.0],
		"bufferView":11,
		"type":"VEC2",
		"min":[0.0,
		0.0],
		"componentType":5126,
		"count":1950,
		"byteOffset":24
	},
	{
		"max":[1949],
		"bufferView":12,
		"type":"SCALAR",
		"min":[0],
		"componentType":5123,
		"count":10368,
		"byteOffset":0
	},
	{
		"max":[30.761524200439454,
		74.51374816894531,
		35.389808654785159],
		"bufferView":13,
		"type":"VEC3",
		"min":[-40.41131591796875,
		-1.167084813117981,
		-41.84130859375],
		"componentType":5126,
		"count":1950,
		"byteOffset":0
	},
	{
		"max":[0.9995985627174377,
		0.9669479727745056,
		0.860165536403656],
		"bufferView":13,
		"type":"VEC3",
		"min":[-0.931373655796051,
		-0.793895959854126,
		-0.9806287288665772],
		"componentType":5126,
		"count":1950,
		"byteOffset":12
	},
	{
		"max":[1.0,
		1.0],
		"bufferView":13,
		"type":"VEC2",
		"min":[0.0,
		0.0],
		"componentType":5126,
		"count":1950,
		"byteOffset":24
	}],
	"asset":{
		"version":"2.0",
		"generator":"Created using the official Cinema 4D glTF Exporter 1.000x284978"
	},
	"scenes":[{
		"nodes":[0]
	}],
	"nodes":[{
		"name":"Subdivision Surface",
		"translation":[0.0,
		0.0,
		0.0],
		"rotation":[0.0,
		0.0,
		0.0,
		-1.0],
		"scale":[1.0,
		1.0,
		1.0],
		"children":[1,
		15]
	},
	{
		"name":"Cloth Surface",
		"translation":[0.0,
		0.0,
		0.0],
		"rotation":[0.0,
		0.0,
		0.0,
		-1.0],
		"scale":[1.0,
		1.0,
		1.0],
		"children":[2]
	},
	{
		"name":"shell",
		"children":[3,
		6,
		9,
		12]
	},
	{
		"name":"petalnull 0",
		"children":[4]
	},
	{
		"name":"petal",
		"children":[5]
	},
	{
		"name":"petal",
		"mesh":0
	},
	{
		"name":"petalnull 1",
		"translation":[0.0,
		0.0,
		0.0],
		"rotation":[0.0,
		-0.7071067690849304,
		0.0,
		0.7071067690849304],
		"scale":[1.0,
		1.0,
		1.0],
		"children":[7]
	},
	{
		"name":"petal",
		"children":[8]
	},
	{
		"name":"petal",
		"mesh":1
	},
	{
		"name":"petalnull 2",
		"translation":[0.0,
		0.0,
		0.0],
		"rotation":[0.0,
		-1.0,
		0.0,
		-6.123234262925839e-17],
		"scale":[1.0,
		1.0,
		1.0],
		"children":[10]
	},
	{
		"name":"petal",
		"children":[11]
	},
	{
		"name":"petal",
		"mesh":2
	},
	{
		"name":"petalnull 3",
		"translation":[0.0,
		0.0,
		0.0],
		"rotation":[0.0,
		-0.7071067690849304,
		0.0,
		-0.7071067690849304],
		"scale":[1.0,
		1.0,
		1.0],
		"children":[13]
	},
	{
		"name":"petal",
		"children":[14]
	},
	{
		"name":"petal",
		"mesh":3
	},
	{
		"name":"petal",
		"translation":[0.0,
		0.0,
		0.0],
		"rotation":[0.0,
		0.0,
		0.0,
		-1.0],
		"scale":[1.0,
		1.0,
		1.0],
		"children":[16,
		19,
		22]
	},
	{
		"name":"petalnull 0",
		"children":[17]
	},
	{
		"name":"petal",
		"children":[18]
	},
	{
		"name":"petal",
		"mesh":4
	},
	{
		"name":"petalnull 1",
		"translation":[0.0,
		0.0,
		0.0],
		"rotation":[0.0,
		-0.8660253882408142,
		0.0,
		0.5],
		"scale":[1.0,
		1.0,
		1.0],
		"children":[20]
	},
	{
		"name":"petal",
		"children":[21]
	},
	{
		"name":"petal",
		"mesh":5
	},
	{
		"name":"petalnull 2",
		"translation":[0.0,
		0.0,
		0.0],
		"rotation":[0.0,
		-0.8660253882408142,
		0.0,
		-0.5],
		"scale":[1.0,
		1.0,
		1.0],
		"children":[23]
	},
	{
		"name":"petal",
		"children":[24]
	},
	{
		"name":"petal",
		"mesh":6
	}],
	"meshes":[{
		"name":"petal",
		"primitives":[{
			"attributes":{
				"POSITION":1,
				"NORMAL":2,
				"TEXCOORD_0":3
			},
			"indices":0,
			"material":0
		}]
	},
	{
		"name":"petal",
		"primitives":[{
			"attributes":{
				"POSITION":5,
				"NORMAL":6,
				"TEXCOORD_0":7
			},
			"indices":4,
			"material":0
		}]
	},
	{
		"name":"petal",
		"primitives":[{
			"attributes":{
				"POSITION":9,
				"NORMAL":10,
				"TEXCOORD_0":11
			},
			"indices":8,
			"material":0
		}]
	},
	{
		"name":"petal",
		"primitives":[{
			"attributes":{
				"POSITION":13,
				"NORMAL":14,
				"TEXCOORD_0":15
			},
			"indices":12,
			"material":0
		}]
	},
	{
		"name":"petal",
		"primitives":[{
			"attributes":{
				"POSITION":17,
				"NORMAL":18,
				"TEXCOORD_0":19
			},
			"indices":16,
			"material":0
		}]
	},
	{
		"name":"petal",
		"primitives":[{
			"attributes":{
				"POSITION":21,
				"NORMAL":22,
				"TEXCOORD_0":23
			},
			"indices":20,
			"material":0
		}]
	},
	{
		"name":"petal",
		"primitives":[{
			"attributes":{
				"POSITION":25,
				"NORMAL":26,
				"TEXCOORD_0":27
			},
			"indices":24,
			"material":0
		}]
	}],
	"bufferViews":[{
		"buffer":0,
		"byteOffset":0,
		"byteLength":124416,
		"target":34963
	},
	{
		"buffer":0,
		"byteOffset":124416,
		"byteLength":345504,
		"target":34962,
		"byteStride":32
	},
	{
		"buffer":1,
		"byteOffset":0,
		"byteLength":124416,
		"target":34963
	},
	{
		"buffer":1,
		"byteOffset":124416,
		"byteLength":345504,
		"target":34962,
		"byteStride":32
	},
	{
		"buffer":2,
		"byteOffset":0,
		"byteLength":124416,
		"target":34963
	},
	{
		"buffer":2,
		"byteOffset":124416,
		"byteLength":345504,
		"target":34962,
		"byteStride":32
	},
	{
		"buffer":3,
		"byteOffset":0,
		"byteLength":124416,
		"target":34963
	},
	{
		"buffer":3,
		"byteOffset":124416,
		"byteLength":345504,
		"target":34962,
		"byteStride":32
	},
	{
		"buffer":4,
		"byteOffset":0,
		"byteLength":20736,
		"target":34963
	},
	{
		"buffer":4,
		"byteOffset":20736,
		"byteLength":62400,
		"target":34962,
		"byteStride":32
	},
	{
		"buffer":5,
		"byteOffset":0,
		"byteLength":20736,
		"target":34963
	},
	{
		"buffer":5,
		"byteOffset":20736,
		"byteLength":62400,
		"target":34962,
		"byteStride":32
	},
	{
		"buffer":6,
		"byteOffset":0,
		"byteLength":20736,
		"target":34963
	},
	{
		"buffer":6,
		"byteOffset":20736,
		"byteLength":62400,
		"target":34962,
		"byteStride":32
	}],
	"buffers":[{
		"uri":"data:application/octet-stream;base64,",
		"byteLength":469920
	},
	{
		"uri":"data:application/octet-stream;base64,",
		"byteLength":469920
	},
	{
		"uri":"data:application/octet-stream;base64,",
		"byteLength":469920
	},
	{
		"uri":"data:application/octet-stream;base64,",
		"byteLength":469920
	},
	{
		"uri":"data:application/octet-stream;base64,",
		"byteLength":83136
	},
	{
		"uri":"data:application/octet-stream;base64,",
		"byteLength":83136
	},
	{
		"uri":"data:application/octet-stream;base64,",
		"byteLength":83136
	}],
	"materials":[{
		"alphaMode":"OPAQUE",
		"pbrMetallicRoughness":{
			"baseColorFactor":[0.8,
			0.8,
			0.8,
			1.0],
			"metallicRoughnessTexture":{
				"index":0
			},
			"metallicFactor":1.0,
			"roughnessFactor":1.0
		},
		"normalTexture":{
			"index":1,
			"scale":1.0
		},
		"emissiveFactor":[0.0,
		0.0,
		0.0],
		"doubleSided":true,
		"name":"PBR"
	}],
	"images":[{
		"uri":"data:image/jpeg;base64,"
	},
	{
		"uri":"data:image/jpeg;base64,"
	}],
	"samplers":[{
		"magFilter":9729,
		"minFilter":9729,
		"wrapS":10497,
		"wrapT":10497
	},
	{
		"magFilter":9729,
		"minFilter":9729,
		"wrapS":10497,
		"wrapT":10497
	}],
	"textures":[{
		"sampler":0,
		"source":0
	},
	{
		"sampler":1,
		"source":1
	}]
}